<?xml version="1.0"?>
<svg version="1.1" xmlns="http://www.w3.org/2000/svg" width="400px" height="200px" style="border: dashed 2px #aaa"><path fill="#000000" d="M51.568,129.848q0-6.048,3.584-11.984q-4.144-2.632-4.144-7.784q0-6.216,5.488-11.032q6.16-5.432,15.904-5.432q4.48,0,9.632,1.288q1.176,0.28,10.024,4.34t12.712,4.06q2.576,0,3.864-1.456q0.672-0.728,0.672-1.568t-0.728-1.512q-0.392-0.56-0.392-0.728t0.308-0.168t1.064,0.98t0.756,2.296t-1.764,2.52t-4.452,1.204q-4.2,0-13.048-4.06t-11.116-4.508t-5.18-0.448q-11.592,0-18.256,7.504q-0.784,0.84-1.848,3.388t-1.064,4.9q0,3.248,2.296,5.04q2.912-4.256,6.888-6.776t8.064-2.52q5.04,0,5.04,3.92q0,4.704-5.516,10.22t-10.22,5.516q-3.024,0-3.024-2.576q0-0.896,0.476-1.568t1.148-0.504l-0.112,1.288q0,0.84,2.576,0.84q3.808,0,8.036-3.92t5.124-7.672q0.224-0.84,0.224-1.512q0-2.52-3.22-2.52t-6.664,2.464t-6.468,6.496q0.224,0.112,1.736,0.448l3.36,0.112q2.464,0.112,2.464,0.56q0,0.784-2.352,0.784l-0.336,0q-3.416,0-5.6-0.84q-4.312,6.608-4.312,12.152q0,7.168,5.544,7.168q6.272,0,13.048-8.736l10.976-16.352q6.16-8.96,10.696-9.184l2.128,0.504q1.008,0.56,1.008,1.68t-0.56,1.12l-1.792-0.28q-3.864,0-9.912,8.344l-11.144,15.568q-7.168,8.344-13.72,8.344q-4.48,0-6.188-2.408t-1.708-7z M105.16952,133.936q-0.28,0.056-1.204,0.056t-1.848-0.728t-0.924-1.876t0.42-2.548t0.588-2.128q-6.44,7.504-10.08,7.504q-2.296,0-2.52-2.856l0-0.392q0-2.408,2.912-6.496q-1.624,1.456-3.304,3.36q-0.224,0.224-0.56,0.224q-0.224,0-0.224-0.28t0.504-0.952l7.728-9.072q1.456-1.68,2.968-1.68t1.512,1.008q0,0.392-0.336,0.728q-2.24,2.072-5.628,6.888t-3.388,7.112q0,1.008,0.672,1.008q2.352,0,6.832-4.648q1.568-1.568,5.824-6.916t5.6-5.348q2.016,0,2.016,1.568q0,0.56-2.352,3.248q-3.192,3.864-4.872,6.3t-1.68,3.948t0.84,1.512q0.392,0,0.896-0.224q3.864-1.68,9.24-7.84q0.336-0.392,0.672-0.392t0.336,0.364t-0.392,0.812q-2.408,2.8-5.656,5.628t-4.592,3.108z M126.06704,132.76q-1.624,0.952-4.004,0.952t-3.64-1.568t-2.156-4.984q-1.008,1.008-1.4,1.008q-0.28,0-0.28-0.392t0.28-0.672q1.848-2.296,6.272-6.608l7.056-6.608q3.024-2.856,3.584-2.856q1.792,0,1.792,1.344q0,0.672-0.532,1.316t-0.784,1.008t-0.532,0.7q-1.008,1.736-2.044,7.168t-1.596,7.56q4.648-0.056,9.576-6.048q0.56-0.56,0.84-0.56t0.28,0.364t-0.504,0.98q-3.248,3.808-6.048,5.32q-1.68,0.84-4.368,1.4z M118.50704,126.544q0,1.904,1.26,3.108t2.828,1.204t2.408-0.616q1.12-0.616,2.212-5.152t1.316-8.008l0.224-1.904q-3.08,2.296-6.58,5.936t-3.612,4.816q-0.056,0.336-0.056,0.616z M151.61256,133.376q-3.304,0-3.304-3.864q0-2.184,1.54-4.844t3.78-6.244q-7.168,3.584-12.992,10.584q-3.248,4.872-3.808,4.872q-1.624,0-1.624-0.952q0-0.504,0.672-1.792q5.432-9.688,8.232-14.168q6.664-10.696,9.408-11.592q0.112-0.056,0.224-0.056q0.728,0,1.008,1.176q-0.168,1.176-5.824,8.512q-5.88,7.448-6.664,9.744q2.072-1.512,7.224-5.096q5.544-3.864,7.336-3.864t1.792,1.4q0,0.224-0.028,0.308t-3.892,5.292t-3.864,7.672q0,1.288,0.952,1.288q3.024-0.112,9.072-7.28q0.504-0.504,0.756-0.504t0.252,0.336q0,1.12-5.544,6.048q-3.472,3.024-4.704,3.024z M180.46208,116.856l0.784-0.168q0.616,0,1.176,0.504t0.56,0.784t-3.472,5.404t-3.472,7.14q0,0.168,0.056,0.336q0.28,1.288,1.232,1.288q2.912,0,10.64-9.632q0.168-0.224,0.392-0.224t0.224,0.42t-0.504,1.092q-7.168,9.576-10.92,9.576q-0.504,0-0.952-0.168q-2.464-0.952-2.464-3.696q0-0.952,0.224-1.904l-3.472,3.36q-3.304,2.912-4.788,2.912t-2.828-0.952q-1.512-1.12-1.512-2.968q0-4.088,5.712-9.772t10.472-5.684q1.848,0,2.464,1.288q0.168,0.448,0.28,0.756t0.168,0.308z M163.71808,130.632q0,2.016,1.4,2.016q3.248,0,8.848-7.112l5.936-8.176q-0.448-0.784-1.456-0.784q-3.416,0-9.072,5.292t-5.656,8.764z M198.8396,133.88q-4.2,0-4.2-4.648q0-2.352,1.232-5.152t2.688-4.704q-0.28,0.056-0.728,0.056q-1.344,0-2.24-1.904l-4.144,5.376q-3.472,4.312-4.032,4.312q-0.28,0-0.28-0.224q0-0.56,0.952-1.624q4.872-5.656,6.888-9.576q1.288-4.872,3.248-4.872q1.288,0,1.288,1.12t-1.4,2.856l-1.344,1.792q0,1.176,1.736,1.176q1.008,0,2.24-0.728l1.456-0.896q0.112-0.056,0.56-0.056t0.952,0.56t0.336,1.008l-3.864,4.872q-3.584,4.592-3.584,7.252t2.464,2.66q2.576,0,6.328-2.744q2.24-1.624,4.088-3.64q1.736-2.016,1.904-2.016q0.392,0,0.392,0.42t-0.504,0.98l-1.792,2.016q-1.512,1.568-3.36,3.024q-4.424,3.304-7.28,3.304z M278.49064,117.584l5.432-0.112q2.016,0,2.016,0.28q0,0.728-8.176,1.288q-5.208,10.192-5.208,13.888q0,2.576,1.624,2.576q0.616,0,1.54-0.756t1.12-0.756t0.196,0.28q-0.28,1.008-1.708,1.68t-2.408,0.672t-1.54-0.112q-1.344-0.504-1.344-3.248q0-5.656,4.312-14.392l-6.72,0.168q-7.504,7.336-15.064,12.88q-11.312,8.232-17.696,8.232q-0.392,0-0.784-0.056q-8.624-0.728-8.624-8.848q0-4.816,3.024-10.192q4.032-7.168,11.032-12.236t12.544-5.068t5.544,4.088q0,2.744-1.68,6.104t-3.416,4.256q-0.168,0.056-0.364,0.056t-0.196-0.112l1.848-3.024q1.904-2.968,1.904-5.208t-0.98-3.612t-3.108-1.372q-4.368,0-10.444,4.872t-9.24,11.984t-3.164,11.088q0,5.992,6.104,5.992q5.824,0,15.792-7.504q4.424-3.304,14.392-12.488q-1.96,0.112-3.64,0.392q-3.584,0.672-3.36-0.224q0.224-2.072,2.128-2.072q3.696,0.448,6.216,0.448q4.816-4.424,14.392-14.504q6.44-6.776,7.84-6.776q0.616,0,0.616,0.952t-0.504,2.968t-1.12,2.464q-1.288,0.896-2.408,2.436t-3.192,5.768t-3.528,6.86z M282.97064,103.92l-14.336,13.44l3.304,0q1.176,0.056,2.912,0.056q1.624-3.192,8.12-13.496z M298.38016,133.376q-3.304,0-3.304-3.864q0-2.184,1.54-4.844t3.78-6.244q-7.168,3.584-12.992,10.584q-3.248,4.872-3.808,4.872q-1.624,0-1.624-0.952q0-0.504,0.672-1.792q5.432-9.688,8.232-14.168q6.664-10.696,9.408-11.592q0.112-0.056,0.224-0.056q0.728,0,1.008,1.176q-0.168,1.176-5.824,8.512q-5.88,7.448-6.664,9.744q2.072-1.512,7.224-5.096q5.544-3.864,7.336-3.864t1.792,1.4q0,0.224-0.028,0.308t-3.892,5.292t-3.864,7.672q0,1.288,0.952,1.288q3.024-0.112,9.072-7.28q0.504-0.504,0.756-0.504t0.252,0.336q0,1.12-5.544,6.048q-3.472,3.024-4.704,3.024z M311.49368,134.328q-0.616,0-1.12-0.168q-3.584-1.008-3.584-4.032q0-3.92,4.928-9.072t8.848-5.152q1.288,0,2.1,0.7t0.812,1.708q0,3.136-4.732,5.992t-7.7,2.856q-0.448,0-0.784-0.112q-0.84,1.512-0.84,3.192q0,2.912,2.772,2.912t7.196-3.752q3.416-2.744,5.824-5.824q0.504-0.672,0.868-0.672t0.364,0.336t-0.448,0.952q-3.024,3.976-7.28,7.056t-7.224,3.08z M322.07768,118.2q0-0.672-1.428-0.672t-4.06,2.184q-3.528,2.912-5.488,6.104q0.336,0.112,0.728,0.112q2.128,0,5.684-2.268t4.452-4.956q0.112-0.28,0.112-0.504z M336.9272,133.88q-4.2,0-4.2-4.648q0-2.352,1.232-5.152t2.688-4.704q-0.28,0.056-0.728,0.056q-1.344,0-2.24-1.904l-4.144,5.376q-3.472,4.312-4.032,4.312q-0.28,0-0.28-0.224q0-0.56,0.952-1.624q4.872-5.656,6.888-9.576q1.288-4.872,3.248-4.872q1.288,0,1.288,1.12t-1.4,2.856l-1.344,1.792q0,1.176,1.736,1.176q1.008,0,2.24-0.728l1.456-0.896q0.112-0.056,0.56-0.056t0.952,0.56t0.336,1.008l-3.864,4.872q-3.584,4.592-3.584,7.252t2.464,2.66q2.576,0,6.328-2.744q2.24-1.624,4.088-3.64q1.736-2.016,1.904-2.016q0.392,0,0.392,0.42t-0.504,0.98l-1.792,2.016q-1.512,1.568-3.36,3.024q-4.424,3.304-7.28,3.304z"/><path fill="#" d=""/></svg>
